<svg width="28" height="27" viewBox="0 0 28 27" fill="none" xmlns="http://www.w3.org/2000/svg">
<path fill-rule="evenodd" clip-rule="evenodd" d="M3.11111 0H24.8889C26.6071 0 28 1.34315 28 3V24C28 25.6569 26.6071 27 24.8889 27H3.11111C1.39289 27 0 25.6569 0 24V3C0 1.34315 1.39289 0 3.11111 0ZM7.77777 22.5C8.20732 22.5 8.55554 22.1642 8.55554 21.75V11.25C8.55554 10.8358 8.20732 10.5 7.77777 10.5H5.44443C5.01488 10.5 4.66666 10.8358 4.66666 11.25V21.75C4.66666 22.1642 5.01488 22.5 5.44443 22.5H7.77777ZM6.61113 9C5.32247 9 4.2778 7.99264 4.2778 6.75C4.2778 5.50736 5.32247 4.5 6.61113 4.5C7.8998 4.5 8.94446 5.50736 8.94446 6.75C8.94446 7.99264 7.8998 9 6.61113 9ZM22.5556 22.5001C22.9851 22.5001 23.3333 22.1643 23.3333 21.7501V14.8501C23.3838 12.4662 21.5563 10.4318 19.1022 10.1401C17.3865 9.98892 15.724 10.7617 14.7778 12.1501V11.2501C14.7778 10.8358 14.4296 10.5001 14 10.5001H11.6667C11.2371 10.5001 10.8889 10.8358 10.8889 11.2501V21.7501C10.8889 22.1643 11.2371 22.5001 11.6667 22.5001H14C14.4296 22.5001 14.7778 22.1643 14.7778 21.7501V16.1251C14.7778 14.8824 15.8225 13.8751 17.1111 13.8751C18.3998 13.8751 19.4445 14.8824 19.4445 16.1251V21.7501C19.4445 22.1643 19.7927 22.5001 20.2222 22.5001H22.5556Z" fill="#07484A"/>
</svg>
