<svg width="30" height="27" viewBox="0 0 30 27" fill="none" xmlns="http://www.w3.org/2000/svg">
<path d="M29.9561 3.91307C29.1821 5.00633 28.2464 5.95999 27.1853 6.73722C27.1853 7.02281 27.1853 7.30839 27.1853 7.60985C27.1938 12.7961 25.2373 17.769 21.7544 21.4138C18.2715 25.0586 13.5535 27.0704 8.65817 26.9981C5.82807 27.0081 3.03421 26.3239 0.495452 24.999C0.358562 24.9357 0.27027 24.7923 0.27079 24.6341V24.4596C0.27079 24.2317 0.445137 24.047 0.660204 24.047C3.44212 23.95 6.1248 22.9287 8.32867 21.1277C5.81064 21.074 3.54507 19.4946 2.50243 17.066C2.44977 16.9333 2.46617 16.7812 2.5457 16.6645C2.62524 16.5479 2.75642 16.4836 2.89185 16.4948C3.65713 16.5763 4.43006 16.5009 5.16842 16.2727C2.38873 15.6617 0.300111 13.2183 0.00119572 10.2277C-0.00942813 10.0843 0.0512914 9.94532 0.161419 9.86106C0.271546 9.77681 0.415162 9.75943 0.540384 9.81522C1.28633 10.1637 2.09158 10.3473 2.90682 10.3547C0.47116 8.66198 -0.580886 5.44244 0.345677 2.51686C0.441321 2.23258 0.671103 2.02257 0.950584 1.964C1.23006 1.90544 1.51802 2.00697 1.70863 2.23127C4.9954 5.93516 9.51149 8.14228 14.3047 8.38728C14.1819 7.86855 14.1215 7.33546 14.1249 6.80068C14.1698 3.99657 15.8084 1.49861 18.2737 0.476249C20.739 -0.546108 23.543 0.109473 25.373 2.13607C26.6205 1.88445 27.8265 1.44079 28.9526 0.819194C29.0351 0.764662 29.1397 0.764662 29.2222 0.819194C29.2737 0.906581 29.2737 1.0174 29.2222 1.10478C28.6768 2.42738 27.7552 3.53668 26.5862 4.27799C27.6099 4.15229 28.6156 3.89659 29.5817 3.51642C29.663 3.45779 29.7699 3.45779 29.8513 3.51642C29.9194 3.54943 29.9704 3.61255 29.9906 3.68898C30.0108 3.7654 29.9982 3.84738 29.9561 3.91307Z" fill="#07484A"/>
</svg>
