<svg width="40" height="40" viewBox="0 0 40 40" fill="none" xmlns="http://www.w3.org/2000/svg">
<rect width="40" height="40" rx="20" fill="#F9D9DA"/>
<path fill-rule="evenodd" clip-rule="evenodd" d="M20.0002 24.0209C19.8817 24.0209 19.7681 23.9738 19.6843 23.89C19.6005 23.8062 19.5534 23.6926 19.5534 23.5741L19.5534 15.5315C19.5534 15.413 19.6005 15.2993 19.6843 15.2155C19.7681 15.1317 19.8817 15.0847 20.0002 15.0847C20.1187 15.0847 20.2324 15.1317 20.3162 15.2155C20.3999 15.2993 20.447 15.413 20.447 15.5315L20.447 23.5741C20.447 23.6926 20.3999 23.8062 20.3162 23.89C20.2324 23.9738 20.1187 24.0209 20.0002 24.0209Z" fill="#07484A"/>
<path fill-rule="evenodd" clip-rule="evenodd" d="M20.3164 24.784C20.2749 24.8256 20.2256 24.8586 20.1713 24.8812C20.117 24.9037 20.0588 24.9153 20.0001 24.9153C19.9413 24.9153 19.8831 24.9037 19.8288 24.8812C19.7745 24.8586 19.7252 24.8256 19.6837 24.784L17.0029 22.1032C16.919 22.0193 16.8718 21.9055 16.8718 21.7868C16.8718 21.6682 16.919 21.5544 17.0029 21.4705C17.0868 21.3866 17.2005 21.3394 17.3192 21.3394C17.4378 21.3394 17.5516 21.3866 17.6355 21.4705L20.0001 23.8359L22.3646 21.4705C22.4485 21.3866 22.5623 21.3394 22.6809 21.3394C22.7996 21.3394 22.9134 21.3866 22.9973 21.4705C23.0812 21.5544 23.1283 21.6682 23.1283 21.7868C23.1283 21.9055 23.0812 22.0193 22.9973 22.1032L20.3164 24.784Z" fill="#07484A"/>
</svg>
