<svg width="48" height="50" viewBox="0 0 48 50" fill="none" xmlns="http://www.w3.org/2000/svg">
<rect width="48" height="50" rx="16" fill="#07484A"/>
<path d="M27.85 16.85L29.3 18.3L27.12 20.46C26.73 20.85 26.73 21.49 27.12 21.88C27.51 22.27 28.15 22.27 28.54 21.88L30.7 19.7L32.15 21.15C32.2205 21.2191 32.3099 21.2658 32.4068 21.2842C32.5038 21.3026 32.6041 21.2918 32.695 21.2533C32.7859 21.2149 32.8634 21.1503 32.9176 21.0679C32.9719 20.9854 33.0006 20.8887 33 20.79V16.5C33 16.22 32.78 16 32.5 16H28.21C28.1113 15.9994 28.0146 16.0281 27.9321 16.0824C27.8497 16.1366 27.7851 16.2141 27.7467 16.305C27.7082 16.3959 27.6974 16.4962 27.7158 16.5932C27.7342 16.6901 27.7809 16.7795 27.85 16.85ZM15.85 21.15L17.3 19.7L19.46 21.88C19.85 22.27 20.49 22.27 20.88 21.88C21.27 21.49 21.27 20.85 20.88 20.46L18.7 18.3L20.15 16.85C20.2191 16.7795 20.2658 16.6901 20.2842 16.5932C20.3026 16.4962 20.2918 16.3959 20.2533 16.305C20.2149 16.2141 20.1503 16.1366 20.0679 16.0824C19.9854 16.0281 19.8887 15.9994 19.79 16H15.5C15.22 16 15 16.22 15 16.5V20.79C15 21.24 15.54 21.46 15.85 21.15ZM20.15 33.15L18.7 31.7L20.88 29.54C21.27 29.15 21.27 28.51 20.88 28.12C20.49 27.73 19.85 27.73 19.46 28.12L17.3 30.3L15.85 28.85C15.7795 28.7809 15.6901 28.7342 15.5932 28.7158C15.4962 28.6974 15.3959 28.7082 15.305 28.7467C15.2141 28.7851 15.1366 28.8497 15.0824 28.9321C15.0281 29.0146 14.9994 29.1113 15 29.21V33.5C15 33.78 15.22 34 15.5 34H19.79C19.8887 34.0006 19.9854 33.9719 20.0679 33.9176C20.1503 33.8634 20.2149 33.7859 20.2533 33.695C20.2918 33.6041 20.3026 33.5038 20.2842 33.4068C20.2658 33.3099 20.2191 33.2205 20.15 33.15ZM32.15 28.85L30.7 30.3L28.54 28.12C28.15 27.73 27.51 27.73 27.12 28.12C26.73 28.51 26.73 29.15 27.12 29.54L29.3 31.7L27.85 33.15C27.7809 33.2205 27.7342 33.3099 27.7158 33.4068C27.6974 33.5038 27.7082 33.6041 27.7467 33.695C27.7851 33.7859 27.8497 33.8634 27.9321 33.9176C28.0146 33.9719 28.1113 34.0006 28.21 34H32.5C32.78 34 33 33.78 33 33.5V29.21C33.0006 29.1113 32.9719 29.0146 32.9176 28.9321C32.8634 28.8497 32.7859 28.7851 32.695 28.7467C32.6041 28.7082 32.5038 28.6974 32.4068 28.7158C32.3099 28.7342 32.2205 28.7809 32.15 28.85Z" fill="#FDFBF8"/>
</svg>
