<svg width="27" height="27" viewBox="0 0 27 27" fill="none" xmlns="http://www.w3.org/2000/svg">
<path fill-rule="evenodd" clip-rule="evenodd" d="M5.022 2.70002H26.325C26.6978 2.70002 27 3.00223 27 3.37502V4.05002C26.9902 5.17036 26.6877 6.26868 26.1225 7.23602L22.95 12.8115C22.2635 14.0454 20.9732 14.8216 19.5615 14.85H11.151C10.8592 14.8437 10.5692 14.803 10.287 14.7285L8.937 17.55H23.625C23.9978 17.55 24.3 17.8522 24.3 18.225V19.575C24.3 19.9478 23.9978 20.25 23.625 20.25H6.75C6.38055 20.2586 6.03504 20.0678 5.8455 19.7505L5.5485 19.2375C5.39241 18.9371 5.39241 18.5795 5.5485 18.279L8.0595 13.284C7.92237 13.1392 7.80025 12.9809 7.695 12.8115L1.917 2.70002H0.675C0.302208 2.70002 0 2.39781 0 2.02502V0.675021C0 0.302229 0.302208 2.1373e-05 0.675 2.1373e-05H1.917C2.88545 -0.00382344 3.78178 0.511309 4.266 1.35002L5.022 2.70002ZM8.1 21.6C6.60883 21.6 5.4 22.8089 5.4 24.3C5.4 25.7912 6.60883 27 8.1 27C9.59117 27 10.8 25.7912 10.8 24.3C10.8 22.8089 9.59117 21.6 8.1 21.6ZM24.3 24.3C24.3 25.7912 23.0912 27 21.6 27C20.1088 27 18.9 25.7912 18.9 24.3C18.9 22.8089 20.1088 21.6 21.6 21.6C23.0912 21.6 24.3 22.8089 24.3 24.3Z" fill="#07484A"/>
</svg>
