<svg width="26" height="26" viewBox="0 0 26 26" fill="none" xmlns="http://www.w3.org/2000/svg">
<path fill-rule="evenodd" clip-rule="evenodd" d="M13 0C5.8203 0 0 5.8203 0 13C0 20.1797 5.8203 26 13 26C20.1797 26 26 20.1797 26 13C26 9.55219 24.6304 6.24558 22.1924 3.80761C19.7544 1.36964 16.4478 0 13 0ZM13 3.89995C15.1539 3.89995 16.9 5.64604 16.9 7.79995C16.9 9.95387 15.1539 11.7 13 11.7C10.8461 11.7 9.1 9.95387 9.1 7.79995C9.1 5.64604 10.8461 3.89995 13 3.89995ZM12.9997 22.0829C15.8793 22.0829 18.589 20.7199 20.3057 18.408C20.5718 18.0192 20.6066 17.5168 20.3967 17.095L20.0977 16.484C19.4436 15.149 18.0874 14.302 16.6007 14.3H9.39875C7.89091 14.3016 6.51909 15.1723 5.87575 16.536L5.60275 17.108C5.39801 17.5264 5.43273 18.0223 5.69375 18.408C7.41048 20.7199 10.1202 22.0829 12.9997 22.0829Z" fill="#07484A"/>
</svg>
