<svg width="31" height="25" viewBox="0 0 31 25" fill="none" xmlns="http://www.w3.org/2000/svg">
<path fill-rule="evenodd" clip-rule="evenodd" d="M30.1389 3.44444H0.861111C0.385533 3.44444 0 3.05891 0 2.58333V0.861111C0 0.385533 0.385533 0 0.861111 0H30.1389C30.6145 0 31 0.385533 31 0.861111V2.58333C31 3.05891 30.6145 3.44444 30.1389 3.44444ZM31 12.9168V11.1946C31 10.719 30.6145 10.3335 30.1389 10.3335H0.861111C0.385533 10.3335 0 10.719 0 11.1946V12.9168C0 13.3924 0.385533 13.7779 0.861111 13.7779H30.1389C30.6145 13.7779 31 13.3924 31 12.9168ZM31 21.5278V23.25C31 23.7256 30.6145 24.1111 30.1389 24.1111H0.861111C0.385533 24.1111 0 23.7256 0 23.25V21.5278C0 21.0522 0.385533 20.6667 0.861111 20.6667H30.1389C30.6145 20.6667 31 21.0522 31 21.5278Z" fill="#07484A"/>
</svg>
