<svg width="21" height="13" viewBox="0 0 21 13" fill="none" xmlns="http://www.w3.org/2000/svg">
<path fill-rule="evenodd" clip-rule="evenodd" d="M13.2682 12.7273C13.1818 12.641 13.1132 12.5386 13.0664 12.4258C13.0196 12.313 12.9955 12.1921 12.9955 12.07C12.9955 11.9479 13.0196 11.8269 13.0664 11.7142C13.1132 11.6014 13.1818 11.4989 13.2682 11.4127L18.183 6.49976L13.2682 1.58683C13.0939 1.41251 12.996 1.17607 12.996 0.929542C12.996 0.683013 13.0939 0.44658 13.2682 0.272257C13.4425 0.0979337 13.679 8.62961e-07 13.9255 8.52185e-07C14.172 8.41409e-07 14.4085 0.0979336 14.5828 0.272257L20.153 5.84247C20.2395 5.92871 20.3081 6.03116 20.3549 6.14394C20.4017 6.25673 20.4258 6.37764 20.4258 6.49976C20.4258 6.62187 20.4017 6.74278 20.3549 6.85557C20.3081 6.96836 20.2395 7.07081 20.153 7.15704L14.5828 12.7273C14.4966 12.8137 14.3941 12.8823 14.2813 12.9291C14.1685 12.9759 14.0476 13 13.9255 13C13.8034 13 13.6825 12.9759 13.5697 12.9291C13.4569 12.8823 13.3545 12.8137 13.2682 12.7273Z" fill="white"/>
<path fill-rule="evenodd" clip-rule="evenodd" d="M5.27668e-07 6.49985C5.16905e-07 6.25364 0.0978107 6.0175 0.271914 5.8434C0.446017 5.66929 0.682151 5.57148 0.92837 5.57148L17.639 5.57148C17.8852 5.57148 18.1214 5.66929 18.2955 5.8434C18.4696 6.0175 18.5674 6.25363 18.5674 6.49985C18.5674 6.74607 18.4696 6.98221 18.2955 7.15631C18.1214 7.33041 17.8852 7.42822 17.639 7.42822L0.92837 7.42822C0.682151 7.42822 0.446017 7.33041 0.271914 7.15631C0.0978108 6.98221 5.3843e-07 6.74607 5.27668e-07 6.49985Z" fill="white"/>
</svg>
