<svg width="68" height="68" viewBox="0 0 68 68" fill="none" xmlns="http://www.w3.org/2000/svg">
<g clip-path="url(#clip0_201_823)">
<path d="M22.9168 52.0494C22.8995 51.9644 22.8743 51.8808 22.8411 51.7997C22.8079 51.7201 22.7667 51.643 22.7189 51.5713C22.6711 51.4983 22.6153 51.4305 22.5542 51.3694C22.4931 51.3083 22.4254 51.2526 22.3523 51.2047C22.2806 51.1569 22.2036 51.1158 22.1226 51.0826C22.0429 51.0494 21.9592 51.0228 21.8742 51.0069C21.7029 50.9723 21.5263 50.9723 21.3563 51.0069C21.2713 51.0228 21.1876 51.0494 21.1066 51.0826C21.0269 51.1158 20.9498 51.1569 20.8781 51.2047C20.8051 51.2526 20.7373 51.3083 20.6762 51.3694C20.6152 51.4305 20.5594 51.4983 20.5116 51.5713C20.4624 51.643 20.4226 51.7201 20.3894 51.7997C20.3562 51.8808 20.3296 51.9644 20.3137 52.0494C20.2964 52.1344 20.2871 52.2221 20.2871 52.3084C20.2871 52.3947 20.2964 52.4824 20.3137 52.5674C20.3296 52.6524 20.3562 52.7361 20.3894 52.8158C20.4226 52.8968 20.4624 52.9738 20.5116 53.0455C20.5594 53.1186 20.6152 53.1863 20.6762 53.2474C20.7373 53.3085 20.8051 53.3643 20.8781 53.4121C20.9498 53.46 21.0269 53.5012 21.1066 53.5344C21.1876 53.5676 21.2713 53.5942 21.3563 53.6101C21.4413 53.6274 21.5289 53.6367 21.6152 53.6367C21.7016 53.6367 21.7892 53.6274 21.8742 53.6101C21.9592 53.5942 22.0429 53.5676 22.1226 53.5344C22.2036 53.5012 22.2806 53.4599 22.3523 53.4121C22.4254 53.3643 22.4931 53.3085 22.5542 53.2474C22.6153 53.1863 22.6711 53.1186 22.7189 53.0455C22.7667 52.9738 22.8079 52.8968 22.8411 52.8158C22.8743 52.7361 22.8995 52.6524 22.9168 52.5674C22.9341 52.4824 22.9434 52.3947 22.9434 52.3084C22.9434 52.2221 22.9341 52.1344 22.9168 52.0494Z" fill="#70908B"/>
<path d="M61.0928 52.4585C61.0876 52.4452 61.0823 52.4321 61.0768 52.4191C59.8543 49.5587 56.9875 48.5015 53.5946 49.6603L44.3418 52.2191C43.8069 50.599 42.4725 49.2204 40.5858 48.5202C40.5741 48.516 40.5624 48.5117 40.5506 48.5078L30.3797 45.0557C29.5331 43.9615 26.8814 41.1615 21.9165 41.1615C18.4467 41.1615 15.3773 43.5418 13.6213 46.1363H1.32812C0.594602 46.1363 0 46.7309 0 47.4644V64.209C0 64.9425 0.594602 65.5371 1.32812 65.5371H9.22476C9.95828 65.5371 10.5529 64.9425 10.5529 64.209V63.0623H14.2561C14.9896 63.0623 15.5842 62.4677 15.5842 61.7341V61.3519C17.743 61.5402 18.453 61.9497 20.4356 63.0929C21.9603 63.9722 24.2647 65.301 28.4146 67.1668C28.4338 67.1755 28.4534 67.1837 28.4729 67.1914C29.2694 67.5047 30.8263 67.9969 32.7459 67.9969C34.0819 67.9969 35.594 67.7582 37.1461 67.0547L57.598 59.732C57.6344 59.719 57.6702 59.7044 57.7053 59.6882C59.6599 58.7889 62.5726 56.2544 61.0928 52.4585ZM7.89663 62.8807H2.65625V48.7924H7.89663V62.8807ZM12.928 60.4059H10.5529V48.7924H12.928V60.4059ZM56.644 57.252L36.2012 64.5714C36.1833 64.5778 36.159 64.5874 36.1413 64.5945C36.1234 64.6018 36.1055 64.6095 36.0878 64.6176C33.2407 65.9261 30.5344 65.1428 29.4737 64.7304C25.4652 62.9267 23.3257 61.693 21.7625 60.7916C19.5892 59.5384 18.542 58.9343 15.5842 58.6901V47.9931C16.8431 45.9297 19.2845 43.8176 21.9166 43.8176C26.4304 43.8176 28.343 46.7534 28.4182 46.8719C28.5803 47.1357 28.8296 47.3345 29.1227 47.434L39.678 51.0164C41.3638 51.6492 42.2547 53.0928 41.8452 54.5325C41.6562 55.1974 41.2196 55.7488 40.6158 56.0852C40.0172 56.4187 39.3253 56.5012 38.6657 56.3187L26.7666 52.5479C26.067 52.3262 25.3208 52.7135 25.0993 53.4128C24.8776 54.112 25.2649 54.8584 25.9642 55.0801L37.884 58.8574C37.8966 58.8614 37.9092 58.8653 37.922 58.8688C38.3978 59.0042 38.8823 59.0711 39.3639 59.0711C40.2455 59.0711 41.1174 58.8465 41.9087 58.4056C43.1323 57.7239 44.0171 56.6064 44.4002 55.259C44.4307 55.1514 44.4578 55.0438 44.4813 54.9363L54.4533 52.1738C55.8935 51.6818 57.7841 51.5045 58.6258 53.4432C59.4971 55.7192 57.2326 56.9712 56.644 57.252Z" fill="#70908B"/>
<path d="M47.6877 17.4706C47.6704 17.3856 47.6452 17.3019 47.6106 17.2209C47.5774 17.1412 47.5376 17.0642 47.4884 16.9925C47.4406 16.9194 47.3848 16.8517 47.3238 16.7906C47.2627 16.7295 47.1949 16.6737 47.1219 16.6259C47.0502 16.5781 46.9731 16.5369 46.8934 16.5037C46.8124 16.4705 46.7287 16.4439 46.6451 16.428C46.4737 16.3935 46.2971 16.3935 46.1258 16.428C46.0408 16.4439 45.9571 16.4705 45.8774 16.5037C45.7964 16.5369 45.7194 16.5781 45.6477 16.6259C45.5746 16.6737 45.5069 16.7295 45.4458 16.7906C45.3847 16.8517 45.3289 16.9194 45.2811 16.9925C45.2333 17.0642 45.1921 17.1412 45.1589 17.2209C45.1257 17.3019 45.0991 17.3856 45.0832 17.4706C45.0659 17.5556 45.0566 17.6432 45.0566 17.7296C45.0566 17.8159 45.0659 17.9035 45.0832 17.9885C45.0991 18.0735 45.1257 18.1572 45.1589 18.2369C45.1921 18.3179 45.2333 18.395 45.2811 18.4667C45.3289 18.5397 45.3847 18.6075 45.4458 18.6685C45.5069 18.7296 45.5746 18.7854 45.6477 18.8332C45.7194 18.881 45.7964 18.9222 45.8774 18.9554C45.9571 18.9886 46.0408 19.0139 46.1258 19.0311C46.2108 19.0484 46.2984 19.0577 46.3848 19.0577C46.4711 19.0577 46.5587 19.0484 46.6451 19.0311C46.7287 19.0139 46.8124 18.9886 46.8934 18.9554C46.9731 18.9222 47.0502 18.881 47.1219 18.8332C47.1949 18.7854 47.2627 18.7296 47.3238 18.6685C47.3848 18.6075 47.4406 18.5397 47.4884 18.4667C47.5376 18.395 47.5774 18.3179 47.6106 18.2369C47.6452 18.1572 47.6704 18.0735 47.6877 17.9885C47.7049 17.9035 47.7129 17.8159 47.7129 17.7296C47.7129 17.6432 47.7049 17.5556 47.6877 17.4706Z" fill="#70908B"/>
<path d="M66.6719 4.50111H58.7753C58.0418 4.50111 57.4472 5.09571 57.4472 5.82924V6.97594H53.744C53.0104 6.97594 52.4158 7.57054 52.4158 8.30406V8.6863C50.2571 8.49784 49.5471 8.08851 47.5646 6.94526C46.0399 6.06604 43.7355 4.73725 39.5855 2.87137C39.5662 2.8626 39.5468 2.8545 39.5271 2.8468C38.1762 2.31528 34.6358 1.26952 30.8545 2.9832L25.5102 4.89676L21.0053 0.392026C20.4867 -0.126606 19.6457 -0.126606 19.1271 0.392026L4.33732 15.1816C3.85893 15.6601 3.76715 16.4898 4.33732 17.06L29.6098 42.3325C30.0142 42.737 30.9612 42.8594 31.4882 42.3325L44.9906 28.8302C45.3416 28.8605 45.7059 28.8769 46.0835 28.8769C49.5533 28.8769 52.6226 26.4966 54.3785 23.9022H66.6719C67.4055 23.9022 68.0001 23.3076 68.0001 22.5741V5.82924C68.0001 5.09571 67.4055 4.50111 66.6719 4.50111ZM20.066 3.20938L23.0931 6.23644C22.1933 6.79292 21.153 7.09069 20.066 7.09069C18.979 7.09069 17.9388 6.79306 17.039 6.23644L20.066 3.20938ZM10.1819 19.1479L7.1548 16.1207L10.1819 13.0937C10.7383 13.9935 11.0361 15.0338 11.0361 16.1207C11.0361 17.2077 10.7385 18.248 10.1819 19.1479ZM30.5491 39.515L27.5225 36.4885C29.3703 35.3481 31.7275 35.3481 33.5755 36.4885L30.5491 39.515ZM35.489 34.5752C32.5541 32.4462 28.544 32.4462 25.6091 34.5752L12.0953 21.0612C13.1324 19.6348 13.6924 17.9214 13.6924 16.1207C13.6924 14.3199 13.1326 12.6067 12.0953 11.1803L15.1257 8.15C16.5521 9.18713 18.2654 9.74707 20.0662 9.74707C21.867 9.74707 23.5803 9.18713 25.0067 8.15L27.8793 11.0226C27.2594 11.1141 26.655 11.3184 26.0913 11.6325C25.1393 12.1629 24.3924 12.9573 23.9273 13.9183C22.4292 14.1958 21.0422 14.921 19.9542 16.0089C17.0024 18.9608 17.0025 23.7637 19.9543 26.7156C21.4302 28.1914 23.3688 28.9294 25.3076 28.9294C27.2463 28.9294 29.1851 28.1915 30.661 26.7156C31.6213 25.7554 32.2939 24.5752 32.6309 23.289L37.1152 24.8109C36.6104 27.1495 37.1274 29.6097 38.5221 31.5421L35.489 34.5752ZM27.4143 21.518C27.426 21.5222 27.4377 21.5265 27.4495 21.5305L30.1052 22.4319C29.9047 23.337 29.4508 24.1692 28.7828 24.8374C26.8666 26.7533 23.7487 26.7536 21.8327 24.8374C19.9165 22.9213 19.9165 19.8035 21.8327 17.8873C22.2949 17.4248 22.8404 17.0634 23.4347 16.8184C23.6799 18.8587 25.1489 20.6773 27.4143 21.518ZM40.4358 29.6283C39.9231 28.7929 39.633 27.8395 39.5872 26.8663C40.2234 27.3263 41.0009 27.7769 41.9295 28.1346L40.4358 29.6283ZM52.4157 22.0446C51.1569 24.1082 48.7155 26.2203 46.0835 26.2203C45.591 26.2203 45.1295 26.1853 44.698 26.1229C44.6962 26.1226 44.6945 26.1223 44.6928 26.1221C41.8246 25.7054 40.2817 24.0753 39.7732 23.4298C39.7461 23.39 39.6306 23.239 39.6135 23.2139C39.4588 22.9373 39.2051 22.715 38.8816 22.6052L28.3219 19.0212C26.6368 18.3888 25.746 16.9458 26.1543 15.5066C26.1546 15.5057 26.1548 15.5048 26.1551 15.5038C26.1555 15.5028 26.1558 15.5016 26.156 15.5005C26.3458 14.8378 26.7817 14.2881 27.3841 13.9524C27.9826 13.619 28.6744 13.5362 29.3342 13.7191L41.2333 17.4898C41.9327 17.7117 42.6791 17.3242 42.9006 16.6249C43.1222 15.9256 42.735 15.1792 42.0357 14.9576L32.5722 11.9587L32.4896 11.8761C32.4888 11.8753 32.488 11.8743 32.4871 11.8735L27.5876 6.97408L31.7988 5.46613C31.813 5.46095 31.8306 5.45444 31.8446 5.44873C31.8482 5.44727 31.8551 5.44461 31.8586 5.44315C31.8767 5.43585 31.8945 5.42814 31.9121 5.42004C34.7591 4.11157 37.4653 4.89477 38.526 5.30728C42.5347 7.11101 44.6743 8.3447 46.2375 9.2461C48.4109 10.4995 49.4581 11.1034 52.4157 11.3476V22.0446ZM57.4472 21.2457H55.0721V9.63219H57.4472V21.2457ZM65.3438 21.2457H60.1034V7.15736H65.3438V21.2457Z" fill="#70908B"/>
</g>
<defs>
<clipPath id="clip0_201_823">
<rect width="68" height="68" fill="white"/>
</clipPath>
</defs>
</svg>
