<svg width="60" height="68" viewBox="0 0 60 68" fill="none" xmlns="http://www.w3.org/2000/svg">
<path d="M29.8042 0C13.3702 0 0 13.3702 0 29.8042C0 31.6255 0 45.7141 0 45.9648C0 49.2516 2.67404 51.9256 5.96085 51.9256H8.28955C9.10976 54.2381 11.3183 55.8995 13.9086 55.8995C17.1955 55.8995 19.8695 53.2255 19.8695 49.9386V33.7781C19.8695 30.4913 17.1955 27.8173 13.9086 27.8173C11.3183 27.8173 9.10976 29.4786 8.28955 31.7912H5.96085C5.26422 31.7912 4.59581 31.9124 3.9739 32.1329V29.8042C3.9739 15.5614 15.5614 3.9739 29.8042 3.9739C44.0471 3.9739 55.6346 15.5614 55.6346 29.8042V32.1329C55.0126 31.9124 54.3442 31.7912 53.6476 31.7912H51.3189C50.4987 29.4786 48.2901 27.8173 45.6998 27.8173C42.413 27.8173 39.739 30.4913 39.739 33.7781V49.9386C39.739 53.2255 42.413 55.8995 45.6998 55.8995C46.3013 55.8995 46.8821 55.8092 47.4299 55.6427C46.6867 58.0882 44.4112 59.8734 41.7259 59.8734H35.4233C34.6031 57.5609 32.3946 55.8995 29.8042 55.8995C26.5174 55.8995 23.8434 58.5735 23.8434 61.8603C23.8434 65.1472 26.5174 67.8212 29.8042 67.8212C32.3946 67.8212 34.6031 66.1598 35.4233 63.8473H41.7259C47.2039 63.8473 51.6607 59.3906 51.6607 53.9125V51.9256H53.6476C56.9344 51.9256 59.6085 49.2516 59.6085 45.9648C59.6085 45.7178 59.6085 31.624 59.6085 29.8042C59.6085 13.3702 46.2383 0 29.8042 0ZM11.9217 33.7781C11.9217 32.6825 12.813 31.7912 13.9086 31.7912C15.0042 31.7912 15.8956 32.6825 15.8956 33.7781V49.9386C15.8956 51.0343 15.0042 51.9256 13.9086 51.9256C12.813 51.9256 11.9217 51.0343 11.9217 49.9386V33.7781ZM5.96085 35.7651H7.94779V47.9517H5.96085C4.86524 47.9517 3.9739 47.0604 3.9739 45.9648V37.752C3.9739 36.6564 4.86524 35.7651 5.96085 35.7651ZM29.8042 63.8473C28.7086 63.8473 27.8173 62.9559 27.8173 61.8603C27.8173 60.7647 28.7086 59.8734 29.8042 59.8734C30.8998 59.8734 31.7912 60.7647 31.7912 61.8603C31.7912 62.9559 30.8998 63.8473 29.8042 63.8473ZM47.6868 49.9386C47.6868 51.0343 46.7954 51.9256 45.6998 51.9256C44.6042 51.9256 43.7129 51.0343 43.7129 49.9386V33.7781C43.7129 32.6825 44.6042 31.7912 45.6998 31.7912C46.7954 31.7912 47.6868 32.6825 47.6868 33.7781V49.9386ZM55.6346 45.9648C55.6346 47.0604 54.7432 47.9517 53.6476 47.9517H51.6607V35.7651H53.6476C54.7432 35.7651 55.6346 36.6564 55.6346 37.752V45.9648Z" fill="#70908B"/>
</svg>
