<svg width="68" height="68" viewBox="0 0 68 68" fill="none" xmlns="http://www.w3.org/2000/svg">
<path d="M67.0029 14.6389L40.6404 0.163061C40.2443 -0.0543536 39.7641 -0.0543536 39.368 0.163061L29.4315 5.61908C29.2218 5.67434 29.0261 5.77969 28.8639 5.931L13.0061 14.6389C12.5831 14.8708 12.3203 15.3149 12.3203 15.7978V33.3056C9.64519 34.1422 7.19372 35.6176 5.1554 37.6565C-0.157572 42.9689 -1.51215 51.0716 1.7847 57.8187C2.10488 58.4746 2.89656 58.7467 3.55242 58.426C4.20879 58.1053 4.48043 57.3137 4.16025 56.6578C1.35917 50.925 2.51027 44.0405 7.02485 39.5259C9.84814 36.7027 13.6015 35.1477 17.594 35.1477C21.5865 35.1477 25.3398 36.7027 28.1631 39.5259C30.9859 42.3487 32.5409 46.1021 32.5409 50.0946C32.5409 54.087 30.9859 57.8404 28.1626 60.6637C23.648 65.1783 16.7636 66.3294 11.0308 63.5283C10.3749 63.2076 9.58322 63.4798 9.26304 64.1356C8.94234 64.792 9.21398 65.5837 9.87035 65.9039C12.328 67.1051 14.9649 67.6886 17.5826 67.6886C22.1494 67.6881 26.6552 65.9106 30.0326 62.5332C31.5813 60.9844 32.8053 59.1976 33.6713 57.2553L39.368 60.3833C39.5663 60.4923 39.7852 60.5465 40.0042 60.5465C40.2232 60.5465 40.4427 60.4923 40.6404 60.3833L67.0029 45.9079C67.4258 45.6755 67.6887 45.2314 67.6887 44.7491V35.5614C67.6887 34.8311 67.0968 34.2393 66.3666 34.2393C65.6364 34.2393 65.0446 34.8311 65.0446 35.5614V43.9667L41.3304 56.9883V31.0535L49.1568 26.7558V33.5685C49.1568 34.0364 49.4036 34.4691 49.8059 34.7067C50.0135 34.8291 50.2459 34.8905 50.4788 34.8905C50.6978 34.8905 50.9173 34.8363 51.1161 34.7268L56.7653 31.6174C57.1877 31.385 57.4495 30.9414 57.4495 30.4596V22.202L65.0446 18.0319V24.9855C65.0446 25.7157 65.6364 26.3076 66.3666 26.3076C67.0968 26.3076 67.6887 25.7157 67.6887 24.9855V15.7978C67.6887 15.3155 67.4258 14.8708 67.0029 14.6389ZM40.0042 2.82988L63.6198 15.7978L56.1703 19.8884L32.5548 6.92047L40.0042 2.82988ZM40.0042 28.7652L16.3887 15.7978L24.1113 11.5569L47.7273 24.5243L40.0042 28.7652ZM50.4737 23.0164L26.8581 10.049L29.8079 8.42895L53.424 21.3964L50.4737 23.0164ZM30.0326 37.6565C26.7099 34.3338 22.2924 32.5041 17.594 32.5041C16.7052 32.5041 15.8273 32.5697 14.9644 32.6983V18.0319L38.6868 31.0581V56.993L34.5694 54.7321C34.9748 53.2396 35.1844 51.6831 35.1844 50.0946C35.1844 45.3961 33.3547 40.9786 30.0326 37.6565ZM54.806 29.6783L51.8009 31.3324V25.3041L54.806 23.6542V29.6783Z" fill="#70908B"/>
<path d="M66.3666 28.9449C66.019 28.9449 65.6777 29.0864 65.4319 29.3323C65.1861 29.5781 65.0446 29.9189 65.0446 30.267C65.0446 30.6145 65.1861 30.9554 65.4319 31.2012C65.6777 31.4475 66.019 31.5885 66.3666 31.5885C66.7142 31.5885 67.0555 31.4475 67.3013 31.2012C67.5471 30.9554 67.6886 30.6145 67.6886 30.267C67.6886 29.9189 67.5471 29.5781 67.3013 29.3323C67.0555 29.0864 66.7142 28.9449 66.3666 28.9449Z" fill="#70908B"/>
<path d="M13.1486 51.4166C13.4869 51.4166 13.8257 51.2875 14.0833 51.0298C14.5998 50.5134 14.5998 49.6763 14.0833 49.1599L13.1677 48.2437H20.9812C22.8765 48.2437 24.4185 49.7858 24.4185 51.6811C24.4185 53.5763 22.8765 55.1184 20.9812 55.1184H16.3515C15.6213 55.1184 15.0294 55.7102 15.0294 56.4404C15.0294 57.1701 15.6213 57.762 16.3515 57.762H20.9812C24.3344 57.762 27.0626 55.0342 27.0626 51.6811C27.0626 48.3279 24.3344 45.6002 20.9812 45.6002H13.1677L14.0833 44.684C14.5998 44.1676 14.5998 43.3305 14.0833 42.8141C13.5674 42.2981 12.7303 42.2981 12.2139 42.8141L9.04098 45.987C8.52508 46.5034 8.52508 47.3405 9.04098 47.8569L12.2139 51.0293C12.4721 51.2875 12.8104 51.4166 13.1486 51.4166Z" fill="#70908B"/>
<path d="M6.09118 62.9224C5.71522 62.9224 5.34185 62.7623 5.08105 62.4519L5.07847 62.4488C4.60853 61.89 4.68083 61.0565 5.2396 60.5866C5.79837 60.1161 6.63239 60.1884 7.10234 60.7472C7.57177 61.3065 7.50102 62.1415 6.94225 62.6115C6.69385 62.8201 6.39174 62.9224 6.09118 62.9224Z" fill="#70908B"/>
</svg>
