<svg width="27" height="27" viewBox="0 0 27 27" fill="none" xmlns="http://www.w3.org/2000/svg">
<path fill-rule="evenodd" clip-rule="evenodd" d="M20.8086 18.6796L26.8075 24.6857C27.0754 24.9837 27.0622 25.4398 26.7775 25.7218L25.7277 26.7729C25.5869 26.915 25.3952 26.9949 25.1953 26.9949C24.9953 26.9949 24.8037 26.915 24.6629 26.7729L18.664 20.7668C18.4981 20.6005 18.3475 20.4196 18.2141 20.2262L17.0893 18.7247C15.2282 20.2126 12.9171 21.0227 10.5355 21.022C5.62785 21.0391 1.36328 17.6496 0.266542 12.8602C-0.830192 8.07089 1.53362 3.15988 5.95852 1.03468C10.3834 -1.09053 15.6885 0.137243 18.733 3.99112C21.7774 7.845 21.7488 13.2964 18.664 17.118L20.1637 18.1541C20.3979 18.3042 20.6143 18.4805 20.8086 18.6796ZM3.03678 10.5113C3.03678 14.6577 6.39402 18.0189 10.5354 18.0189C12.5241 18.0189 14.4314 17.228 15.8377 15.82C17.2439 14.412 18.034 12.5024 18.034 10.5113C18.034 6.36495 14.6767 3.00367 10.5354 3.00367C6.39402 3.00367 3.03678 6.36495 3.03678 10.5113Z" fill="#07484A"/>
</svg>
