<svg width="27" height="27" viewBox="0 0 27 27" fill="none" xmlns="http://www.w3.org/2000/svg">
<path fill-rule="evenodd" clip-rule="evenodd" d="M19.5 0H7.5C3.35786 0 0 3.35786 0 7.5V19.5C0 23.6421 3.35786 27 7.5 27H19.5C23.6421 27 27 23.6421 27 19.5V7.5C27 3.35786 23.6421 0 19.5 0ZM24.375 19.5C24.3667 22.189 22.189 24.3668 19.5 24.375H7.49999C4.81102 24.3668 2.63322 22.189 2.62499 19.5V7.5C2.63322 4.81103 4.81102 2.63324 7.49999 2.625H19.5C22.189 2.63324 24.3667 4.81103 24.375 7.5V19.5ZM20.625 7.875C21.4534 7.875 22.125 7.20342 22.125 6.375C22.125 5.54657 21.4534 4.875 20.625 4.875C19.7966 4.875 19.125 5.54657 19.125 6.375C19.125 7.20342 19.7966 7.875 20.625 7.875ZM13.5 6.75001C9.77209 6.75001 6.75001 9.77209 6.75001 13.5C6.75001 17.2279 9.77209 20.25 13.5 20.25C17.2279 20.25 20.25 17.2279 20.25 13.5C20.254 11.7086 19.5441 9.98937 18.2774 8.72263C17.0107 7.4559 15.2914 6.74602 13.5 6.75001ZM9.375 13.5C9.375 15.7782 11.2218 17.625 13.5 17.625C15.7782 17.625 17.625 15.7782 17.625 13.5C17.625 11.2218 15.7782 9.375 13.5 9.375C11.2218 9.375 9.375 11.2218 9.375 13.5Z" fill="#07484A"/>
</svg>
