<svg width="162" height="121" viewBox="0 0 162 121" fill="none" xmlns="http://www.w3.org/2000/svg">
<path d="M92.1946 121.005L158.459 121.005C160.044 121.005 161.341 119.709 161.341 118.124L161.341 51.8595C161.341 50.2749 160.044 48.9784 158.459 48.9784L121.005 48.9784L121.005 46.0973C121.005 31.8071 132.645 20.1676 146.935 20.1676L158.459 20.1676C160.044 20.1676 161.341 18.8711 161.341 17.2865L161.341 2.88108C161.341 1.29649 160.044 1.13342e-07 158.459 2.51872e-07L141.173 1.7631e-06C112.564 4.26419e-06 89.3135 23.2791 89.3135 51.8595L89.3136 118.124C89.3136 119.709 90.61 121.005 92.1946 121.005Z" fill="#E0EFF6"/>
<path d="M2.8811 121.005L69.146 121.005C70.7306 121.005 72.027 119.709 72.027 118.124L72.027 51.8595C72.027 50.2749 70.7305 48.9784 69.146 48.9784L31.6919 48.9784L31.6919 46.0973C31.6919 31.8071 43.3315 20.1676 57.6216 20.1676L69.1459 20.1676C70.7305 20.1676 72.027 18.8711 72.027 17.2865L72.027 2.88108C72.027 1.29649 70.7305 1.13342e-07 69.1459 2.51872e-07L51.8595 1.7631e-06C23.2503 4.26419e-06 6.71529e-06 23.2791 9.21386e-06 51.8595L1.50069e-05 118.124C1.51454e-05 119.709 1.2965 121.005 2.8811 121.005Z" fill="#E0EFF6"/>
</svg>
