<svg width="40" height="40" viewBox="0 0 40 40" fill="none" xmlns="http://www.w3.org/2000/svg">
<path d="M37.8602 13.7769L26.1313 11.9919L20.8882 0.861075C20.745 0.556319 20.5094 0.309611 20.2184 0.159652C19.4885 -0.217665 18.6016 0.0967659 18.2367 0.861075L12.9936 11.9919L1.26474 13.7769C0.941375 13.8253 0.645729 13.9849 0.419375 14.2268C0.145726 14.5213 -0.00506713 14.9176 0.000130019 15.3285C0.00532717 15.7394 0.16609 16.1313 0.447092 16.4181L8.93305 25.0819L6.92821 37.3157C6.88119 37.6003 6.91126 37.893 7.01501 38.1606C7.11876 38.4282 7.29204 38.66 7.51519 38.8297C7.73835 38.9994 8.00245 39.1003 8.27755 39.1208C8.55265 39.1413 8.82775 39.0808 9.07164 38.9459L19.5624 33.1701L30.0533 38.9459C30.3397 39.1055 30.6723 39.1587 30.991 39.1007C31.7948 38.9556 32.3353 38.1574 32.1967 37.3157L30.1918 25.0819L38.6778 16.4181C38.9088 16.1811 39.0612 15.8715 39.1074 15.5329C39.2321 14.6864 38.6686 13.9027 37.8602 13.7769Z" fill="#FFC107"/>
</svg>
