<svg width="40" height="40" viewBox="0 0 40 40" fill="none" xmlns="http://www.w3.org/2000/svg">
<rect x="40" y="40" width="40" height="40" rx="20" transform="rotate(180 40 40)" fill="#E0EFF6"/>
<path fill-rule="evenodd" clip-rule="evenodd" d="M19.9999 15.9791C20.1184 15.9791 20.2321 16.0262 20.3159 16.11C20.3997 16.1938 20.4467 16.3074 20.4467 16.4259L20.4467 24.4685C20.4467 24.587 20.3997 24.7007 20.3159 24.7845C20.2321 24.8683 20.1184 24.9153 19.9999 24.9153C19.8814 24.9153 19.7678 24.8683 19.684 24.7845C19.6002 24.7007 19.5531 24.587 19.5531 24.4685L19.5531 16.4259C19.5531 16.3074 19.6002 16.1938 19.684 16.11C19.7678 16.0262 19.8814 15.9791 19.9999 15.9791Z" fill="#07484A"/>
<path fill-rule="evenodd" clip-rule="evenodd" d="M19.6837 15.216C19.7252 15.1744 19.7745 15.1414 19.8288 15.1188C19.883 15.0963 19.9412 15.0847 20 15.0847C20.0588 15.0847 20.117 15.0963 20.1713 15.1188C20.2255 15.1414 20.2748 15.1744 20.3163 15.216L22.9972 17.8968C23.0811 17.9807 23.1282 18.0945 23.1282 18.2132C23.1282 18.3318 23.0811 18.4456 22.9972 18.5295C22.9133 18.6134 22.7995 18.6606 22.6809 18.6606C22.5622 18.6606 22.4484 18.6134 22.3645 18.5295L20 16.1641L17.6355 18.5295C17.5516 18.6134 17.4378 18.6606 17.3191 18.6606C17.2005 18.6606 17.0867 18.6134 17.0028 18.5295C16.9189 18.4456 16.8718 18.3318 16.8718 18.2132C16.8718 18.0945 16.9189 17.9807 17.0028 17.8968L19.6837 15.216Z" fill="#07484A"/>
</svg>
